<svg xmlns="http://www.w3.org/2000/svg" xmlns:xlink="http://www.w3.org/1999/xlink" viewBox="0 0 352.48 306.64"><defs><style>.cls-1{fill:none;clip-rule:evenodd;}.cls-2{fill:#262c54;}.cls-3{fill:#cfdafe;}.cls-4{fill:#fefefe;}.cls-5{fill:url(#linear-gradient);}.cls-6{fill:url(#linear-gradient-2);}.cls-7{fill:#c041c4;}.cls-8{fill:#b02dc7;}.cls-9{fill:url(#linear-gradient-3);}.cls-10{fill:#cb44cf;}.cls-11{fill:#c844de;}.cls-12{fill:#71e57b;}.cls-13{fill:#00c2c0;}.cls-14{fill:#a4ee6a;}.cls-15{fill:#d46597;}.cls-16{clip-path:url(#clip-path);}.cls-17{fill:#fff;}.cls-18{clip-path:url(#clip-path-2);}.cls-19{clip-path:url(#clip-path-3);}</style><linearGradient id="linear-gradient" x1="67.32" y1="285.16" x2="352.48" y2="285.16" gradientUnits="userSpaceOnUse"><stop offset="0" stop-color="#653af5"/><stop offset="1" stop-color="#3ea4ec"/></linearGradient><linearGradient id="linear-gradient-2" x1="115.95" y1="171.32" x2="266.27" y2="171.32" gradientUnits="userSpaceOnUse"><stop offset="0" stop-color="#f64fa3"/><stop offset="1" stop-color="#fa72ac"/></linearGradient><linearGradient id="linear-gradient-3" x1="115.95" y1="227.15" x2="266.27" y2="227.15" gradientUnits="userSpaceOnUse"><stop offset="0" stop-color="#f852a6"/><stop offset="1" stop-color="#f991be"/></linearGradient><clipPath id="clip-path"><path class="cls-1" d="M262,79.56a4.58,4.58,0,0,1-3.23-1.32L245.08,64.76a4.43,4.43,0,0,1,0-6.35l13.73-13.48a4.61,4.61,0,0,1,6.46,0,4.43,4.43,0,0,1,0,6.35L254.78,61.59l10.49,10.3a4.43,4.43,0,0,1,0,6.35A4.58,4.58,0,0,1,262,79.56"/></clipPath><clipPath id="clip-path-2"><path class="cls-1" d="M270.1,96a4.51,4.51,0,0,1-3-5.55l17.43-62.9a4.34,4.34,0,0,1,5.38-3.09,4.51,4.51,0,0,1,3,5.55L275.48,92.92a4.39,4.39,0,0,1-4.19,3.26A4,4,0,0,1,270.1,96Z"/></clipPath><clipPath id="clip-path-3"><path class="cls-1" d="M297,79.56a4.62,4.62,0,0,1-3.24-1.32,4.44,4.44,0,0,1,0-6.35l10.49-10.3L293.78,51.28a4.44,4.44,0,0,1,0-6.35,4.62,4.62,0,0,1,6.47,0L314,58.41a4.43,4.43,0,0,1,0,6.35L300.25,78.24A4.58,4.58,0,0,1,297,79.56"/></clipPath></defs><title>Layer 9 (2)</title><g id="Layer_2" data-name="Layer 2"><g id="Layer_9" data-name="Layer 9"><rect class="cls-2" x="67.32" y="103.89" width="247.58" height="190.11" rx="7.39" ry="7.39"/><rect class="cls-3" x="87.47" y="119.37" width="207.28" height="159.16"/><rect class="cls-4" x="98.27" y="127.66" width="185.68" height="150.87"/><path class="cls-5" d="M67.32,276.32H352.48a0,0,0,0,1,0,0v9.78a7.9,7.9,0,0,1-7.9,7.9H74.47a7.15,7.15,0,0,1-7.15-7.15V276.32A0,0,0,0,1,67.32,276.32Z"/><path class="cls-2" d="M210.12,276.32h49.52a0,0,0,0,1,0,0v5.81a4.8,4.8,0,0,1-4.8,4.8H214.92a4.8,4.8,0,0,1-4.8-4.8v-5.81A0,0,0,0,1,210.12,276.32Z"/><rect class="cls-6" x="115.95" y="152.53" width="150.32" height="37.58"/><rect class="cls-4" x="124.79" y="159.16" width="15.47" height="15.47"/><rect class="cls-7" x="149.11" y="159.16" width="55.26" height="6.63"/><rect class="cls-8" x="149.11" y="168" width="88.42" height="6.63"/><rect class="cls-9" x="115.95" y="208.36" width="150.32" height="37.58"/><rect class="cls-4" x="124.79" y="214.99" width="15.47" height="15.47"/><rect class="cls-10" x="149.11" y="214.99" width="55.26" height="6.63"/><rect class="cls-11" x="149.11" y="223.83" width="88.42" height="6.63"/><path class="cls-12" d="M333.38,0H225.68a19.1,19.1,0,0,0-19.1,19.1v83.38a19.1,19.1,0,0,0,19.1,19.1H245l5.22,14.36a6,6,0,0,0,9.34,2.72l22.21-17.08h51.64a19.1,19.1,0,0,0,19.1-19.1V19.1A19.1,19.1,0,0,0,333.38,0Z"/><circle class="cls-13" cx="10.57" cy="89.06" r="4.25"/><path class="cls-14" d="M15.88,295.13H11.51v-4.37a2.38,2.38,0,0,0-4.76,0v4.37H2.38a2.38,2.38,0,1,0,0,4.76H6.75v4.37a2.38,2.38,0,0,0,4.76,0v-4.37h4.37a2.38,2.38,0,1,0,0-4.76Z"/><path class="cls-15" d="M81.94,36.19H77.57V31.82a2.38,2.38,0,1,0-4.76,0v4.37H68.44a2.38,2.38,0,1,0,0,4.76h4.37v4.36a2.38,2.38,0,1,0,4.76,0V41h4.37a2.38,2.38,0,0,0,0-4.76Z"/><g class="cls-16"><rect class="cls-17" x="239.51" y="39.38" width="31.33" height="44.41"/></g><g class="cls-18"><rect class="cls-17" x="262.7" y="20.06" width="34.6" height="80.35"/></g><g class="cls-19"><rect class="cls-17" x="288.21" y="39.38" width="31.33" height="44.41"/></g></g></g></svg>